<svg width="65" height="107" viewBox="0 0 65 107" fill="none" xmlns="http://www.w3.org/2000/svg">
<path d="M8.96094 106.5H0.460938V104.93L5.9375 97.0781H0.609375V95.0781H8.8125V96.6406L3.34375 104.5H8.96094V106.5ZM20.0781 95.0781V102.469C20.0781 103.312 19.888 104.052 19.5078 104.688C19.1328 105.323 18.5885 105.81 17.875 106.148C17.1615 106.487 16.3177 106.656 15.3438 106.656C13.875 106.656 12.7344 106.281 11.9219 105.531C11.1094 104.776 10.7031 103.745 10.7031 102.438V95.0781H13.1172V102.07C13.1172 102.951 13.2943 103.596 13.6484 104.008C14.0026 104.419 14.5885 104.625 15.4062 104.625C16.1979 104.625 16.7708 104.419 17.125 104.008C17.4844 103.591 17.6641 102.94 17.6641 102.055V95.0781H20.0781ZM25.2969 100.148H26.0781C26.8438 100.148 27.4089 100.021 27.7734 99.7656C28.138 99.5104 28.3203 99.1094 28.3203 98.5625C28.3203 98.0208 28.1328 97.6354 27.7578 97.4062C27.388 97.1771 26.8125 97.0625 26.0312 97.0625H25.2969V100.148ZM25.2969 102.117V106.5H22.875V95.0781H26.2031C27.7552 95.0781 28.9036 95.362 29.6484 95.9297C30.3932 96.4922 30.7656 97.349 30.7656 98.5C30.7656 99.1719 30.5807 99.7708 30.2109 100.297C29.8411 100.818 29.3177 101.227 28.6406 101.523C30.3594 104.091 31.4792 105.75 32 106.5H29.3125L26.5859 102.117H25.2969ZM42.7344 95.0781V102.469C42.7344 103.312 42.5443 104.052 42.1641 104.688C41.7891 105.323 41.2448 105.81 40.5312 106.148C39.8177 106.487 38.974 106.656 38 106.656C36.5312 106.656 35.3906 106.281 34.5781 105.531C33.7656 104.776 33.3594 103.745 33.3594 102.438V95.0781H35.7734V102.07C35.7734 102.951 35.9505 103.596 36.3047 104.008C36.6589 104.419 37.2448 104.625 38.0625 104.625C38.8542 104.625 39.4271 104.419 39.7812 104.008C40.1406 103.591 40.3203 102.94 40.3203 102.055V95.0781H42.7344ZM35.3828 92.8828C35.3828 92.5443 35.4792 92.2839 35.6719 92.1016C35.8698 91.9193 36.1354 91.8281 36.4688 91.8281C36.8125 91.8281 37.0807 91.9245 37.2734 92.1172C37.4714 92.3099 37.5703 92.5651 37.5703 92.8828C37.5703 93.1953 37.4714 93.4479 37.2734 93.6406C37.0755 93.8281 36.8073 93.9219 36.4688 93.9219C36.1354 93.9219 35.8698 93.8307 35.6719 93.6484C35.4792 93.4661 35.3828 93.2109 35.3828 92.8828ZM38.5312 92.8828C38.5312 92.5182 38.6354 92.2526 38.8438 92.0859C39.0573 91.9141 39.3203 91.8281 39.6328 91.8281C39.9714 91.8281 40.2396 91.9219 40.4375 92.1094C40.6406 92.2969 40.7422 92.5547 40.7422 92.8828C40.7422 93.2005 40.6406 93.4531 40.4375 93.6406C40.2344 93.8281 39.9661 93.9219 39.6328 93.9219C39.3203 93.9219 39.0573 93.8385 38.8438 93.6719C38.6354 93.5 38.5312 93.237 38.5312 92.8828ZM50.3828 96.9297C49.4714 96.9297 48.7656 97.2734 48.2656 97.9609C47.7656 98.6432 47.5156 99.5964 47.5156 100.82C47.5156 103.367 48.4714 104.641 50.3828 104.641C51.1849 104.641 52.1562 104.44 53.2969 104.039V106.07C52.3594 106.461 51.3125 106.656 50.1562 106.656C48.4948 106.656 47.224 106.154 46.3438 105.148C45.4635 104.138 45.0234 102.69 45.0234 100.805C45.0234 99.6172 45.2396 98.5781 45.6719 97.6875C46.1042 96.7917 46.724 96.1068 47.5312 95.6328C48.3438 95.1536 49.2943 94.9141 50.3828 94.9141C51.4922 94.9141 52.6068 95.1823 53.7266 95.7188L52.9453 97.6875C52.5182 97.4844 52.0885 97.3073 51.6562 97.1562C51.224 97.0052 50.7995 96.9297 50.3828 96.9297ZM64.9219 106.5H62.1719L59.1797 101.688L58.1562 102.422V106.5H55.7344V95.0781H58.1562V100.305L59.1094 98.9609L62.2031 95.0781H64.8906L60.9062 100.133L64.9219 106.5Z" fill="#2C3876"/>
<path d="M33 44.5L29 49L33 53.5" stroke="#2C3876"/>
<path d="M55.5 49C55.5 62.2548 44.7548 73 31.5 73L31.5 74C45.3071 74 56.5 62.8071 56.5 49L55.5 49ZM31.5 25C44.7548 25 55.5 35.7452 55.5 49L56.5 49C56.5 35.1929 45.3071 24 31.5 24L31.5 25ZM7.5 49C7.5 35.7452 18.2452 25 31.5 25L31.5 24C17.6929 24 6.5 35.1929 6.5 49L7.5 49ZM6.5 49C6.5 62.8071 17.6929 74 31.5 74L31.5 73C18.2452 73 7.5 62.2548 7.5 49L6.5 49Z" fill="#2C3876"/>
</svg>
